<svg id="Icon_ionic-logo-codepen" data-name="Icon ionic-logo-codepen" xmlns="http://www.w3.org/2000/svg" width="71.917" height="71.917" viewBox="0 0 71.917 71.917">
  <path id="Path_53" data-name="Path 53" d="M25.121,24.257c-2.46-1.663-4.935-3.3-7.394-4.965a.66.66,0,0,0-.883,0l-6.24,4.2c5,3.335,14.961,9.983,14.961,9.983V24.835C25.562,24.638,25.315,24.388,25.121,24.257Z" transform="translate(8.468 19.396)" fill="#3f3d56"/>
  <path id="Path_54" data-name="Path 54" d="M17.719,24.852q3.721-2.446,7.4-4.954a1.213,1.213,0,0,0,.449-.856v-8.3s-9.958,6.6-14.971,9.943c2.2,1.47,4.281,2.876,6.387,4.245A.843.843,0,0,0,17.719,24.852Z" transform="translate(8.462 8.645)" fill="#3f3d56"/>
  <path id="Path_55" data-name="Path 55" d="M19.139,19.851q3.807,2.577,7.645,5.107a.69.69,0,0,0,.616,0l6.381-4.249L18.844,10.722v8.564A.775.775,0,0,0,19.139,19.851Z" transform="translate(19.041 8.62)" fill="#3f3d56"/>
  <path id="Path_56" data-name="Path 56" d="M22.141,16.242a.849.849,0,0,0-.761.027c-.773.475-1.519,1-2.274,1.5-1.324.888-4.07,2.733-4.07,2.733l6.235,4.152a.993.993,0,0,0,1,.018L28.539,20.5S23.068,16.856,22.141,16.242Z" transform="translate(14.155 15.602)" fill="#3f3d56"/>
  <path id="Path_57" data-name="Path 57" d="M9.914,16.672v6.358l4.755-3.185Z" transform="translate(7.583 16.255)" fill="#3f3d56"/>
  <path id="Path_58" data-name="Path 58" d="M38.208,2.25A35.958,35.958,0,1,0,74.167,38.208,35.958,35.958,0,0,0,38.208,2.25ZM60.522,44.791a2.387,2.387,0,0,1-1.206,2.1Q49.409,53.47,39.525,60.086a2.212,2.212,0,0,1-2.726-.022q-9.82-6.577-19.685-13.111a2.439,2.439,0,0,1-1.219-2.2V31.95a2.447,2.447,0,0,1,1.224-2.2c6.567-4.355,13.153-8.727,19.7-13.111a2.2,2.2,0,0,1,2.719-.015q9.881,6.616,19.787,13.195a2.317,2.317,0,0,1,1.2,2.032V44.791Z" transform="translate(-2.25 -2.25)" fill="#3f3d56"/>
  <path id="Path_59" data-name="Path 59" d="M26.589,19.321Q22.964,21.782,19.3,24.19a.987.987,0,0,0-.459.994v8.242l14.935-9.953-6.185-4.155A.754.754,0,0,0,26.589,19.321Z" transform="translate(19.041 19.404)" fill="#3f3d56"/>
  <path id="Path_60" data-name="Path 60" d="M28.685,23.028V16.668l-4.75,3.19Z" transform="translate(25.573 16.25)" fill="#3f3d56"/>
</svg>
