<svg xmlns="http://www.w3.org/2000/svg" width="904.712" height="575.809" viewBox="0 0 904.712 575.809">
    <defs>
        <style>
            .cls-1{fill:#3f3d56}.cls-2{fill:#f2f2f2}.cls-3{fill:#ffb9b9}.cls-4{opacity:.1}.cls-5{fill:#2f2e41}.cls-6{fill:#d0cde1}.cls-7,.cls-8{fill:tomato}.cls-8{stroke:#3f3d56}
        </style>
    </defs>
    <g id="vector">
        <ellipse id="Ellipse_11" cx="220.234" cy="28.648" class="cls-1" data-name="Ellipse 11" rx="220.234" ry="28.648" transform="translate(0 518.512)"/>
        <path id="Path_95" d="M957.863 416.946H769.127l-99.214 160.57a187.837 187.837 0 0 0 99.214 28.166c104.236 0 188.736-84.5 188.736-188.736z" class="cls-2" data-name="Path 95" transform="translate(-155.217 -158.634)"/>
        <circle id="Ellipse_12" cx="50.151" cy="50.151" r="50.151" class="cls-1" data-name="Ellipse 12" transform="translate(296.959 429.023)"/>
        <path id="Path_96" d="M376.968 256.088s1.791 17.905-3.581 25.067 13.429 51.925 13.429 51.925l26.858-50.135s-8.953-5.372-3.581-20.591z" class="cls-3" data-name="Path 96" transform="translate(-124.057 -141.785)"/>
        <path id="Path_97" d="M376.968 256.088s1.791 17.905-3.581 25.067 13.429 51.925 13.429 51.925l26.858-50.135s-8.953-5.372-3.581-20.591z" class="cls-4" data-name="Path 97" transform="translate(-124.057 -141.785)"/>
        <path id="Path_98" d="M462.891 357.049l.9 36.706-34.02 54.611-6.271-20.592 18.8-36.706s-6.267-17.01-4.476-26.858 25.067-7.161 25.067-7.161z" class="cls-3" data-name="Path 98" transform="translate(-129.407 -152.325)"/>
        <path id="Path_99" d="M311.4 351.049l-.9 36.706 34.02 54.611 6.267-20.591-18.8-36.706s6.267-17.01 4.476-26.858-25.063-7.162-25.063-7.162z" class="cls-3" data-name="Path 99" transform="translate(-117.572 -151.696)"/>
        <path id="Path_100" d="M334.549 417.088l-3.581 8.953a44.98 44.98 0 0 0-14.324 34.915L305.9 571.968s-7.162 8.057-4.476 17.905c0 0-6.267 33.125-2.686 43.868 0 0-15.219 27.753.9 29.544s21.486 1.79 23.277-4.476 4.476-29.544 4.476-29.544L366.778 489.6l6.267 86.84s-6.267 23.277-4.476 29.544-12.534 51.03-6.267 55.506 24.172 6.267 25.067 2.686 1.791-25.963 1.791-25.963 8.953-19.7 10.743-25.963 3.581-41.182 3.581-41.182l16.116-102.95s3.581-27.753-5.372-33.125l-3.581-16.115z" class="cls-5" data-name="Path 100" transform="translate(-115.658 -158.648)"/>
        <path id="Path_101" d="M296.072 686.088l-3.581 17.905s-18.8 29.544-.9 29.544 19.7-8.953 19.7-8.953v-8.057s8.953-4.476 8.953-5.372-2.686-22.381-2.686-22.381z" class="cls-5" data-name="Path 101" transform="translate(-114.782 -186.824)"/>
        <path id="Path_102" d="M392.672 686.088l3.581 17.905s18.8 29.544.9 29.544-19.7-8.953-19.7-8.953v-8.057s-8.953-4.476-8.953-5.372 2.686-22.381 2.686-22.381z" class="cls-5" data-name="Path 102" transform="translate(-123.647 -186.824)"/>
        <circle id="Ellipse_13" cx="23.62" cy="23.62" r="23.62" class="cls-3" data-name="Ellipse 13" transform="translate(249.168 86.44)"/>
        <path id="Path_103" d="M384.216 316.571s-13.429-22.381-12.534-27.753a25.728 25.728 0 0 0-.043-9.3l-8.014 4.825-33.125 15.218 13.429 44.763s-3.581 9.848-3.581 17.01 1.791 15.219 0 17.905a11.3 11.3 0 0 0-.9 10.743 11.365 11.365 0 0 1 .9 7.162s-12.534 7.162-5.372 8.953a33.27 33.27 0 0 0 14.324 0s.9-2.686 8.057.9 44.763 4.476 44.763 4.476 24.172.9 23.277-2.686 4.476-45.658 4.476-45.658l12.534-59.087-28.648-17.905-9.253-8.169-2.385 12.645z" class="cls-6" data-name="Path 103" transform="translate(-119.666 -144.076)"/>
        <path id="Path_104" d="M333.91 303.088h-6.267s-31.782 38.049-22.829 44.315 39.839 11.191 39.839 11.191-2.686-55.506-10.743-55.506z" class="cls-6" data-name="Path 104" transform="translate(-116.81 -146.708)"/>
        <path id="Path_105" d="M445.243 307.088h8.057s21.486 50.135 14.324 51.925-33.125 7.162-33.125 4.476 10.744-56.401 10.744-56.401z" class="cls-6" data-name="Path 105" transform="translate(-130.559 -147.127)"/>
        <path id="Path_106" d="M373.309 246.9s-2.563-3.844-1.577-7.984a24.2 24.2 0 0 0 .69-7.2 71.217 71.217 0 0 1 4.14-10.448c2.07-3.745 1.084-5.323 7.59-6.505s3.844-9.659 20.994-.493a5.03 5.03 0 0 0 5.224 1.971c3.548-.69 4.83 4.238 4.83 4.238s2.366-1.38 3.253.591 7.212-1.183 7.212 12.123-7.2 25.192-7.2 25.192.528-22.383-11.2-24.65-24.346-8.871-27.4-.394a64.616 64.616 0 0 1-6.554 13.553z" class="cls-5" data-name="Path 106" transform="translate(-123.961 -136.964)"/>
        <path id="Path_107" d="M761.837 585.927a189.177 189.177 0 0 1-99.686-28.3l-.761-.471.47-.761 99.477-161h190.13v.9c.001 104.564-85.067 189.632-189.63 189.632zm-97.982-29.354a187.39 187.39 0 0 0 97.982 27.563c103.278 0 187.356-83.778 187.838-186.945H762.336z" class="cls-1" data-name="Path 107" transform="translate(-154.324 -156.377)"/>
        <path id="Path_108" d="M519 375.617a188.6 188.6 0 0 0 89.522 160.571l99.214-160.571-163.893-93.653A187.867 187.867 0 0 0 519 375.617z" class="cls-2" data-name="Path 108" transform="translate(-139.41 -144.495)"/>
        <path id="Path_109" d="M625.677 530.131l-.762-.471a189.721 189.721 0 0 1-64.984-255.431l.445-.776 165.473 94.557zM561.042 275.9A187.932 187.932 0 0 0 625.1 527.664l98.256-159.019z" class="cls-1" data-name="Path 109" transform="translate(-141.08 -143.604)"/>
        <path id="Path_110" d="M829.908 148.526L789.221 332.85h188.736c.002-90.265-63.372-165.717-148.049-184.324z" class="cls-7" data-name="Path 110" transform="translate(-167.713 -130.519)"/>
        <path id="Path_111" d="M963.089 345.233H772.344l41.12-186.286.873.192a189.69 189.69 0 0 1 148.752 185.2zm-188.516-1.791H961.3c-.421-86.867-61.836-163.331-146.471-182.361z" class="cls-1" data-name="Path 111" transform="translate(-165.945 -131.611)"/>
        <path id="Path_112" d="M724.935 128.412a188.664 188.664 0 0 0-163.893 95.083l163.893 93.653 40.687-184.324a189.382 189.382 0 0 0-40.687-4.412z" class="cls-2" data-name="Path 112" transform="translate(-143.814 -128.412)"/>
        <path id="Path_113" d="M734.338 335.4l-165.729-94.7.445-.778a189.854 189.854 0 0 1 205.55-91.1l.875.192zm-163.282-95.371l162.057 92.6 40.232-182.26a188.064 188.064 0 0 0-202.289 89.656z" class="cls-1" data-name="Path 113" transform="translate(-144.606 -130.084)"/>
        <path id="Path_114" d="M767.6 156.285l-1.3-1.228 98.228-104.246h79.959V52.6H865.3z" class="cls-1" data-name="Path 114" transform="translate(-80.262 -5.322)"/>
        <path id="Rectangle_84" d="M0 0h94.368v3.199H0z" class="cls-8" data-name="Rectangle 84" transform="translate(809.844 59.18)"/>
        <path id="Rectangle_85" d="M0 0h94.368v3.199H0z" class="cls-8" data-name="Rectangle 85" transform="translate(809.844 72.775)"/>
        <path id="Rectangle_86" d="M0 0h94.368v3.199H0z" class="cls-8" data-name="Rectangle 86" transform="translate(809.844 86.371)"/>
        <path id="Rectangle_87" d="M0 0h94.368v3.199H0z" class="cls-8" data-name="Rectangle 87" transform="translate(777.614 454.885)"/>
        <path id="Rectangle_88" d="M0 0h94.368v3.199H0z" class="cls-8" data-name="Rectangle 88" transform="translate(777.614 468.48)"/>
        <path id="Rectangle_89" d="M0 0h94.368v3.199H0z" class="cls-8" data-name="Rectangle 89" transform="translate(777.614 482.076)"/>
        <path id="Path_115" d="M909.327 477.548h-94.472l-.267-.388-73.411-106.536 1.474-1.016L815.8 475.757h93.532z" class="cls-1" data-name="Path 115" transform="translate(-77.631 -38.713)"/>
        <path id="Path_116" d="M152.119 685.773C149.137 711.906 165.2 735.2 165.2 735.2s20.9-19.076 23.883-45.208S176 640.564 176 640.564s-20.9 19.076-23.881 45.209z" class="cls-5" data-name="Path 116" transform="translate(-100.944 -182.056)"/>
        <path id="Path_117" d="M160.27 685.36c10.75 24.006 2.485 51.069 2.485 51.069s-25.693-11.857-36.443-35.863-2.485-51.069-2.485-51.069 25.693 11.858 36.443 35.863z" class="cls-8" data-name="Path 117" transform="translate(-97.702 -182.991)"/>
    </g>
</svg>
