<?xml version="1.0" encoding="UTF-8" standalone="no"?>
<svg
   xmlns:dc="http://purl.org/dc/elements/1.1/"
   xmlns:cc="http://creativecommons.org/ns#"
   xmlns:rdf="http://www.w3.org/1999/02/22-rdf-syntax-ns#"
   xmlns:svg="http://www.w3.org/2000/svg"
   xmlns="http://www.w3.org/2000/svg"
   xmlns:sodipodi="http://sodipodi.sourceforge.net/DTD/sodipodi-0.dtd"
   xmlns:inkscape="http://www.inkscape.org/namespaces/inkscape"
   width="2220"
   height="1159"
   viewBox="0 0 2220 1159"
   version="1.1"
   id="svg53"
   sodipodi:docname="Artboard.svg"
   inkscape:version="0.92.3 (2405546, 2018-03-11)">
  <metadata
     id="metadata57">
    <rdf:RDF>
      <cc:Work
         rdf:about="">
        <dc:format>image/svg+xml</dc:format>
        <dc:type
           rdf:resource="http://purl.org/dc/dcmitype/StillImage" />
        <dc:title />
      </cc:Work>
    </rdf:RDF>
  </metadata>
  <sodipodi:namedview
     pagecolor="#ffffff"
     bordercolor="#666666"
     borderopacity="1"
     objecttolerance="10"
     gridtolerance="10"
     guidetolerance="10"
     inkscape:pageopacity="0"
     inkscape:pageshadow="2"
     inkscape:window-width="1920"
     inkscape:window-height="1001"
     id="namedview55"
     showgrid="false"
     inkscape:zoom="0.30540541"
     inkscape:cx="1188.5841"
     inkscape:cy="777.63697"
     inkscape:window-x="-9"
     inkscape:window-y="-9"
     inkscape:window-maximized="1"
     inkscape:current-layer="svg53" />
  <defs
     id="defs5">
    <clipPath
       id="clip-Artboard_2">
      <rect
         width="2220"
         height="1159"
         id="rect2" />
    </clipPath>
  </defs>
  <rect
     id="Rectangle_148"
     data-name="Rectangle 148"
     width="316.25806"
     height="14.997712"
     x="534.38928"
     y="29.637188"
     style="opacity:0.86499999;fill:#d0cde1;stroke-width:1.49931228"
     inkscape:export-xdpi="96"
     inkscape:export-ydpi="96" />
  <rect
     id="Rectangle_149"
     data-name="Rectangle 149"
     width="316.25806"
     height="13.497941"
     x="534.38928"
     y="67.131462"
     style="opacity:0.86499999;fill:#d0cde1;stroke-width:1.49931228"
     inkscape:export-xdpi="96"
     inkscape:export-ydpi="96" />
  <rect
     id="Rectangle_150"
     data-name="Rectangle 150"
     width="316.25806"
     height="14.997712"
     x="534.38928"
     y="103.12605"
     style="opacity:0.86499999;fill:#d0cde1;stroke-width:1.49931228"
     inkscape:export-xdpi="96"
     inkscape:export-ydpi="96" />
  <rect
     id="Rectangle_151"
     data-name="Rectangle 151"
     width="31.47592"
     height="31.495195"
     x="588.34802"
     y="164.61665"
     style="opacity:0.86499999;fill:#d0cde1;stroke-width:1.49931228"
     inkscape:export-xdpi="96"
     inkscape:export-ydpi="96" />
  <rect
     id="Rectangle_152"
     data-name="Rectangle 152"
     width="32.974773"
     height="31.495195"
     x="676.7804"
     y="164.61665"
     style="opacity:0.86499999;fill:#ff6347;stroke-width:1.49931228"
     inkscape:export-xdpi="96"
     inkscape:export-ydpi="96" />
  <rect
     id="Rectangle_153"
     data-name="Rectangle 153"
     width="32.974773"
     height="31.495195"
     x="766.71167"
     y="164.61665"
     style="opacity:0.86499999;fill:#ff6584;stroke-width:1.49931228"
     inkscape:export-xdpi="96"
     inkscape:export-ydpi="96" />
  <path
     id="Path_224"
     data-name="Path 224"
     d="m 1028.8116,870.95941 a 79.978811,80.027791 0 1 0 79.9787,80.02778 79.978811,80.027791 0 0 0 -79.9787,-80.02778 z m -13.7895,115.8393 -34.41372,-34.42277 9.64961,-9.6555 24.78511,24.80024 52.31,-52.34207 9.6496,9.65553 z"
     inkscape:connector-curvature="0"
     style="opacity:0.86499999;fill:#ff6347;stroke-width:1.49931228"
     inkscape:export-xdpi="96"
     inkscape:export-ydpi="96" />
  <path
     id="Path_225"
     data-name="Path 225"
     d="M 1154.7947,626.57619 A 235.91951,236.06399 0 0 0 987.97227,223.57863 v 236.0715 z"
     inkscape:connector-curvature="0"
     style="opacity:0.86499999;fill:#3f3d56;stroke-width:1.49931228"
     inkscape:export-xdpi="96"
     inkscape:export-ydpi="96" />
  <path
     id="Path_226"
     data-name="Path 226"
     d="M 987.97379,223.57863 A 235.95399,236.09848 0 0 0 875.11022,666.99947 L 987.97379,459.64863 Z"
     inkscape:connector-curvature="0"
     style="opacity:0.86499999;fill:#ff6347;stroke-width:1.49931228"
     inkscape:export-xdpi="96"
     inkscape:export-ydpi="96" />
  <rect
     id="Rectangle_163"
     data-name="Rectangle 163"
     width="185.7289"
     height="7.5348506"
     x="1261.5491"
     y="670.60651"
     style="opacity:0.86499999;fill:#3f3d56;stroke-width:1.49931228"
     inkscape:export-xdpi="96"
     inkscape:export-ydpi="96" />
  <rect
     id="Rectangle_164"
     data-name="Rectangle 164"
     width="185.7289"
     height="7.5348506"
     x="1261.5491"
     y="693.211"
     style="opacity:0.86499999;fill:#3f3d56;stroke-width:1.49931228"
     inkscape:export-xdpi="96"
     inkscape:export-ydpi="96" />
  <rect
     id="Rectangle_165"
     data-name="Rectangle 165"
     width="185.7289"
     height="7.5348506"
     x="1261.5491"
     y="715.81262"
     style="opacity:0.86499999;fill:#3f3d56;stroke-width:1.49931228"
     inkscape:export-xdpi="96"
     inkscape:export-ydpi="96" />
  <path
     id="Path_227"
     data-name="Path 227"
     d="m 1343.151,1051.1044 2.9858,24.8962 16.9145,7.9638 18.9036,-5.9736 12.9335,5.9736 3.981,-22.8985 -22.8844,-25.8861 z"
     inkscape:connector-curvature="0"
     style="opacity:0.86499999;fill:#ffb9b9;stroke-width:1.49931228"
     inkscape:export-xdpi="96"
     inkscape:export-ydpi="96" />
  <path
     id="Path_228"
     data-name="Path 228"
     d="m 1355.0925,1070.0226 c 0,0 -15.4263,-17.9973 -15.6721,-8.9987 -0.2458,8.9987 -34.0749,39.8594 -34.0749,39.8594 0,0 -52.7326,15.9291 -11.9399,25.8846 40.7929,9.9556 130.3388,-18.9151 133.3245,-24.8962 2.9857,-5.9811 -24.8809,-51.7691 -27.8592,-47.7872 -2.9782,3.9819 -17.9113,17.9282 -43.7784,15.9381 z"
     inkscape:connector-curvature="0"
     style="opacity:0.86499999;fill:#2f2e41;stroke-width:1.49931228"
     inkscape:export-xdpi="96"
     inkscape:export-ydpi="96" />
  <path
     id="Path_229"
     data-name="Path 229"
     d="m 1317.2824,774.33662 c 0,0 -5.9699,46.79284 0,53.76084 5.9699,6.96791 2.9842,20.90679 0,22.89849 -2.9843,1.9917 3.9795,9.95547 8.9542,13.93736 4.9745,3.98188 11.9398,21.89665 11.9398,21.89665 0,0 26.8639,70.68576 26.8639,77.65371 0,6.96793 11.9398,21.89664 10.9416,26.88033 -0.9982,4.98369 6.9653,20.9068 5.9699,23.8928 -0.9951,2.9862 12.9352,29.8666 8.9542,33.8499 -3.9809,3.9834 -58.7025,17.9208 -55.7168,8.9597 2.9857,-8.9612 4.9747,-19.911 2.9842,-19.911 -1.9905,0 -10.9416,-10.9484 -8.9541,-14.9333 1.9874,-3.9848 -59.6949,-108.50689 -59.6949,-108.50689 z"
     inkscape:connector-curvature="0"
     style="opacity:0.86499999;fill:#2f2e41;stroke-width:1.49931228"
     inkscape:export-xdpi="96"
     inkscape:export-ydpi="96" />
  <path
     id="Path_230"
     data-name="Path 230"
     d="m 1355.0925,1070.0226 c 0,0 -15.4263,-17.9973 -15.6721,-8.9987 -0.2458,8.9987 -34.0749,39.8594 -34.0749,39.8594 0,0 -52.7326,15.9291 -11.9399,25.8846 40.7929,9.9556 130.3388,-18.9151 133.3245,-24.8962 2.9857,-5.9811 -24.8809,-51.7691 -27.8592,-47.7872 -2.9782,3.9819 -17.9113,17.9282 -43.7784,15.9381 z"
     inkscape:connector-curvature="0"
     style="opacity:0.86499999;stroke-width:1.49931228"
     inkscape:export-xdpi="96"
     inkscape:export-ydpi="96" />
  <path
     id="Path_231"
     data-name="Path 231"
     d="m 1317.2824,774.33662 c 0,0 -5.9699,46.79284 0,53.76084 5.9699,6.96791 2.9842,20.90679 0,22.89849 -2.9843,1.9917 3.9795,9.95547 8.9542,13.93736 4.9745,3.98188 11.9398,21.89665 11.9398,21.89665 0,0 26.8639,70.68576 26.8639,77.65371 0,6.96793 11.9398,21.89664 10.9416,26.88033 -0.9982,4.98369 6.9653,20.9068 5.9699,23.8928 -0.9951,2.9862 12.9352,29.8666 8.9542,33.8499 -3.9809,3.9834 -58.7025,17.9208 -55.7168,8.9597 2.9857,-8.9612 4.9747,-19.911 2.9842,-19.911 -1.9905,0 -10.9416,-10.9484 -8.9541,-14.9333 1.9874,-3.9848 -59.6949,-108.50689 -59.6949,-108.50689 z"
     inkscape:connector-curvature="0"
     style="opacity:0.86499999;stroke-width:1.49931228"
     inkscape:export-xdpi="96"
     inkscape:export-ydpi="96" />
  <path
     id="Path_232"
     data-name="Path 232"
     d="m 1215.7964,1038.7463 -10.9416,27.8748 4.9763,38.8276 31.8386,-1.9917 17.9083,-15.9291 v -33.8484 z"
     inkscape:connector-curvature="0"
     style="opacity:0.86499999;fill:#ffb9b9;stroke-width:1.49931228"
     inkscape:export-xdpi="96"
     inkscape:export-ydpi="96" />
  <path
     id="Path_233"
     data-name="Path 233"
     d="m 1221.7664,1072.5961 c 0,0 -10.9416,-35.8445 -16.9145,-25.8845 a 157.37959,157.47598 0 0 0 -9.9494,19.9109 c 0,0 -48.7532,31.8583 -61.6868,31.8583 -12.9336,0 -24.8809,15.929 -7.9604,21.8966 16.9205,5.9676 146.2581,13.9374 148.2485,0 1.9906,-13.9374 -1.9904,-58.7386 -7.9588,-53.7609 -5.9685,4.9777 -36.8134,15.9352 -43.7786,5.9796 z"
     inkscape:connector-curvature="0"
     style="opacity:0.86499999;fill:#2f2e41;stroke-width:1.49931228"
     inkscape:export-xdpi="96"
     inkscape:export-ydpi="96" />
  <path
     id="Path_234"
     data-name="Path 234"
     d="m 1196.8914,631.56294 c 0,0 -20.894,35.84447 -22.8844,39.82188 -1.9906,3.97742 -12.9351,29.86641 7.9589,39.82197 20.894,9.95547 38.8037,-72.67593 38.8037,-72.67593 z"
     inkscape:connector-curvature="0"
     style="opacity:0.86499999;fill:#ffb9b9;stroke-width:1.49931228"
     inkscape:export-xdpi="96"
     inkscape:export-ydpi="96" />
  <path
     id="Path_235"
     data-name="Path 235"
     d="m 1218.7822,573.81721 c 0,0 -31.8386,61.71859 -25.8686,63.71628 5.9699,1.99768 29.8481,13.93736 29.8481,13.93736 l 10.9416,-62.72042 z"
     inkscape:connector-curvature="0"
     style="opacity:0.86499999;fill:#575a88;stroke-width:1.49931228"
     inkscape:export-xdpi="96"
     inkscape:export-ydpi="96" />
  <path
     id="Path_236"
     data-name="Path 236"
     d="m 1218.7822,573.81721 c 0,0 -31.8386,61.71859 -25.8686,63.71628 5.9699,1.99768 29.8481,13.93736 29.8481,13.93736 l 10.9416,-62.72042 z"
     inkscape:connector-curvature="0"
     style="opacity:0.86499999;stroke-width:1.49931228"
     inkscape:export-xdpi="96"
     inkscape:export-ydpi="96" />
  <path
     id="Path_237"
     data-name="Path 237"
     d="m 1220.7727,625.58632 c 0,0 -6.9652,51.76906 -3.9795,62.72046 2.9857,10.95131 -1.9904,175.21971 1.9906,184.17941 3.9808,8.95962 6.965,66.70225 6.965,73.67165 0,6.9695 -7.9603,63.71636 -9.9492,68.68956 -1.9891,4.9733 -7.9606,21.8967 -4.9748,29.8665 2.9857,7.9697 43.7785,27.8747 49.7484,20.9068 5.97,-6.9679 0.9953,-28.8721 5.97,-29.8664 4.9746,-0.9944 10.9416,-47.78732 10.9416,-47.78732 l 32.8338,-183.18354 c 0,0 61.6869,-153.31706 47.7581,-168.25027 -13.9289,-14.93329 -137.304,-10.94685 -137.304,-10.94685 z"
     inkscape:connector-curvature="0"
     style="opacity:0.86499999;fill:#2f2e41;stroke-width:1.49931228"
     inkscape:export-xdpi="96"
     inkscape:export-ydpi="96" />
  <ellipse
     id="Ellipse_57"
     data-name="Ellipse 57"
     cx="1257.5845"
     cy="223.37769"
     style="opacity:0.86499999;fill:#ffb9b9;stroke-width:1.49931228"
     inkscape:export-xdpi="96"
     inkscape:export-ydpi="96"
     rx="48.753204"
     ry="48.783062" />
  <path
     id="Path_238"
     data-name="Path 238"
     d="m 1239.6763,263.2011 c 0,0 15.9192,41.81361 13.9288,50.77324 -1.9906,8.95964 46.7643,-15.92907 46.7643,-15.92907 0,0 -2.9843,-48.78305 0,-61.72458 2.9842,-12.94152 -60.6931,26.88041 -60.6931,26.88041 z"
     inkscape:connector-curvature="0"
     style="opacity:0.86499999;fill:#ffb9b9;stroke-width:1.49931228"
     inkscape:export-xdpi="96"
     inkscape:export-ydpi="96" />
  <path
     id="Path_239"
     data-name="Path 239"
     d="m 1373.3575,535.59704 c -0.2189,8.35223 -0.3582,13.32997 -0.3582,13.32997 0,0 2.9841,45.79553 -1.9905,60.73025 -4.9747,14.93473 -4.9747,25.88453 -7.9589,35.84455 -0.8754,2.89752 -12.7853,4.44976 -29.511,5.13664 -15.3423,0.62695 -34.7344,0.53844 -53.3502,0.10951 -30.8238,-0.7169 -59.5584,-2.36962 -64.3937,-3.25597 -10.9416,-1.99169 1.9905,-18.91517 -1.9905,-27.8763 -3.9809,-8.96106 6.9651,-123.45063 6.9651,-123.45063 0,0 -0.9951,-64.71213 3.9796,-89.60084 4.9746,-24.8887 23.8782,-64.71212 27.8592,-69.68986 3.9809,-4.97775 0.9952,-7.96379 -7.9605,-13.93739 -8.9556,-5.97358 0,-28.87209 0,-28.87209 16.9146,-13.93737 59.6979,-15.92906 59.6979,-15.92906 0,0 65.6662,67.69817 69.6472,81.63553 2.4071,8.42272 1.5423,75.70247 0.4872,127.65153 -0.4047,19.54203 -0.8335,36.92438 -1.1227,48.17416 z"
     inkscape:connector-curvature="0"
     style="opacity:0.86499999;fill:#575a88;stroke-width:1.49931228"
     inkscape:export-xdpi="96"
     inkscape:export-ydpi="96" />
  <path
     id="Path_240"
     data-name="Path 240"
     d="m 1289.4232,659.43613 c 0,0 -37.8087,77.65366 -7.9589,82.63739 29.8496,4.98372 44.7737,-70.68566 44.7737,-70.68566 z"
     inkscape:connector-curvature="0"
     style="opacity:0.86499999;fill:#ffb9b9;stroke-width:1.49931228"
     inkscape:export-xdpi="96"
     inkscape:export-ydpi="96" />
  <path
     id="Path_241"
     data-name="Path 241"
     d="m 1211.9984,198.65095 c -1.7236,-8.36723 4.666,-16.18854 11.3913,-21.44674 a 83.28528,83.336286 0 0 1 51.2398,-17.48433 c 13.0475,0.0705 26.5147,3.52446 36.3756,12.07316 11.5022,9.97198 16.7498,25.96254 15.7845,41.15972 -0.9652,15.19718 -7.5707,29.61149 -16.4874,41.9576 -4.2762,5.92559 -11.144,12.05966 -17.9773,9.47705 a 16.709217,16.71945 0 0 1 -6.6489,-5.61964 103.13159,103.19476 0 0 1 -11.3987,-17.52932 c -2.4462,-4.75578 -4.5641,-9.76801 -8.0294,-13.83839 -3.4653,-4.07038 -8.6753,-7.13291 -13.9693,-6.40102 -4.3737,0.5999 -8.6634,3.68493 -12.8347,2.23765 -4.6464,-1.61075 -5.7631,-7.54834 -6.1318,-12.4481 -0.4047,-5.37217 -0.1183,-11.59473 -1.6082,-16.67296 -1.6203,0.87438 -18.9066,8.54421 -19.7055,4.53532 z"
     inkscape:connector-curvature="0"
     style="opacity:0.86499999;fill:#2f2e41;stroke-width:1.49931228"
     inkscape:export-xdpi="96"
     inkscape:export-ydpi="96" />
  <path
     id="Path_242"
     data-name="Path 242"
     d="m 1373.35,535.59854 c -11.1439,40.21036 -36.7039,107.98356 -38.1669,110.89608 -0.3686,0.74987 -0.9457,2.21064 -1.6487,4.14088 -15.3422,0.62687 -34.7345,0.53844 -53.3501,0.10951 2.8852,-7.5469 6.2487,-14.83424 6.2487,-17.19341 0,-4.97773 23.8782,-133.40615 23.8782,-133.40615 0,0 -18.9036,-56.74685 -35.8226,-104.53406 -16.919,-47.78721 50.2461,-38.32965 50.2461,-38.32965 35.8226,-8.95962 42.2856,6.47151 42.2856,6.47151 0,0 3.1476,83.9257 7.4523,123.66963 1.1046,10.18495 2.2783,17.46184 3.4924,19.69201 1.6022,2.91705 -0.5471,13.88787 -4.615,28.48365 z"
     inkscape:connector-curvature="0"
     style="opacity:0.86499999;stroke-width:1.49931228"
     inkscape:export-xdpi="96"
     inkscape:export-ydpi="96" />
  <path
     id="Path_243"
     data-name="Path 243"
     d="m 1310.3172,324.92568 c 0,0 -45.7676,18.91511 -28.8544,66.70233 16.913,47.7872 35.8225,104.53404 35.8225,104.53404 0,0 -23.8797,128.42842 -23.8797,133.40463 0,4.97623 -14.9241,31.8582 -8.9542,36.83593 5.97,4.97774 45.7675,14.93322 46.7643,9.95548 a 336.52854,336.73463 0 0 1 10.9417,-33.84838 c 1.9904,-3.98189 48.7531,-128.42839 42.7832,-139.37971 -5.9699,-10.95134 -10.9416,-143.36164 -10.9416,-143.36164 0,0 -27.8622,-43.80232 -63.6818,-34.84268 z"
     inkscape:connector-curvature="0"
     style="opacity:0.86499999;fill:#575a88;stroke-width:1.49931228"
     inkscape:export-xdpi="96"
     inkscape:export-ydpi="96" />
  <path
     id="Path_244"
     data-name="Path 244"
     d="M 1208.9842,700.67386 1033.1282,535.54904 929.29522,750.13483 a 234.86132,235.00515 0 0 0 112.86368,28.71907 c 65.1491,0 124.1305,-35.46056 166.8253,-78.18004 z"
     inkscape:connector-curvature="0"
     style="opacity:0.86499999;fill:#575a89;stroke-width:1.49931228"
     inkscape:export-xdpi="96"
     inkscape:export-ydpi="96" />
  <path
     id="Path_245"
     data-name="Path 245"
     d="M 1208.9842,700.67386 1033.1282,535.54904 929.29522,750.13483 a 234.86132,235.00515 0 0 0 112.86368,28.71907 c 65.1491,0 124.1305,-35.46056 166.8253,-78.18004 z"
     inkscape:connector-curvature="0"
     style="opacity:0.86499999;stroke-width:1.49931228"
     inkscape:export-xdpi="96"
     inkscape:export-ydpi="96" />
  <path
     id="Path_246"
     data-name="Path 246"
     d="M 1194.5353,713.32595 1027.7129,546.40139 914.84925,753.75227 a 236.04991,236.19447 0 0 0 279.68605,-40.42488 z"
     inkscape:connector-curvature="0"
     style="opacity:0.86499999;fill:#575a89;stroke-width:1.49931228"
     inkscape:export-xdpi="96"
     inkscape:export-ydpi="96" />
  <line
     id="Line_10"
     data-name="Line 10"
     y1="1130.1499"
     stroke-miterlimit="10"
     x1="1537.734"
     x2="1537.734"
     y2="920.33936"
     style="opacity:0.86499999;fill:#3f3d56;stroke:#3f3d56;stroke-width:2.99862456;stroke-miterlimit:10"
     inkscape:export-xdpi="96"
     inkscape:export-ydpi="96" />
  <ellipse
     id="Ellipse_58"
     data-name="Ellipse 58"
     cx="1537.734"
     cy="920.33936"
     style="opacity:0.86499999;fill:#3f3d56;stroke-width:1.49931228"
     inkscape:export-xdpi="96"
     inkscape:export-ydpi="96"
     rx="29.651815"
     ry="29.669973" />
  <path
     id="Path_247"
     data-name="Path 247"
     d="m 1537.7337,1049.6496 c 0,0 -4.2357,-91.16354 -91.0748,-80.56762"
     inkscape:connector-curvature="0"
     style="opacity:0.86499999;fill:#3f3d56;stroke-width:1.49931228"
     inkscape:export-xdpi="96"
     inkscape:export-ydpi="96" />
</svg>
