<svg xmlns="http://www.w3.org/2000/svg" id="icon" width="142.372" height="139.959" viewBox="0 0 142.372 139.959">
    <defs>
        <style>
            .cls-1{fill:#575a89}.cls-2{fill:#ddd}.cls-3{fill:#163768}.cls-4{fill:#a4a4a4}.cls-5{fill:tomato}
        </style>
    </defs>
    <path id="Path_20" d="M378.953 368.814l21.131 21.131a10.237 10.237 0 0 1 3 7.239 10.236 10.236 0 0 1-10.234 10.239 10.237 10.237 0 0 1-7.239-3l-21.131-21.131z" class="cls-1" data-name="Path 20" transform="translate(-263.125 -267.464)"/>
    <path id="Rectangle_31" d="M0 0h20.475v17.06H0z" class="cls-2" data-name="Rectangle 31" transform="rotate(135 36.926 74.661)"/>
    <path id="Path_21" d="M400.311 373.639a68.889 68.889 0 0 1 9.059.613l-5.439-5.439-4.858 4.858c.413-.008.827-.032 1.238-.032z" class="cls-3" data-name="Path 21" transform="translate(-288.102 -267.463)"/>
    <path id="Path_22" d="M347.628 337.49l-12.065-12.065-14.479 14.475 4.826 4.826a68.938 68.938 0 0 1 16.853-2.389z" class="cls-4" data-name="Path 22" transform="translate(-231.8 -236.14)"/>
    <g id="Group_6" data-name="Group 6" transform="translate(9.652 9.652)">
        <path id="Rectangle_32" d="M0 0h4.826v20.475H0z" class="cls-2" data-name="Rectangle 32" transform="rotate(135 9.224 38.158)"/>
        <path id="Rectangle_33" d="M0 0h27.302v4.826H0z" class="cls-2" data-name="Rectangle 33" transform="rotate(135 26.994 36.211)"/>
        <path id="Rectangle_34" d="M0 0h16.892v4.826H0z" class="cls-2" data-name="Rectangle 34" transform="translate(115.828)"/>
        <path id="Rectangle_35" d="M0 0h14.479v4.826H0z" class="cls-2" data-name="Rectangle 35" transform="translate(0 38.609)"/>
        <path id="Rectangle_36" d="M0 0h13.651v4.826H0z" class="cls-2" data-name="Rectangle 36" transform="rotate(135 50.88 26.318)"/>
    </g>
    <g id="Group_7" data-name="Group 7" transform="translate(21.718 2.413)">
        <path id="Path_23" d="M87.754 171.169a9.652 9.652 0 1 1 9.652-9.652 9.653 9.653 0 0 1-9.652 9.652zm0-14.479a4.826 4.826 0 1 0 4.826 4.826 4.825 4.825 0 0 0-4.826-4.826z" class="cls-1" data-name="Path 23" transform="translate(-78.102 -113.255)"/>
        <path id="Path_24" d="M174.533 257.949a9.652 9.652 0 1 1 9.652-9.652 9.653 9.653 0 0 1-9.652 9.652zm0-14.479a4.826 4.826 0 1 0 4.826 4.826 4.825 4.825 0 0 0-4.826-4.826z" class="cls-1" data-name="Path 24" transform="translate(-140.75 -175.904)"/>
        <path id="Path_25" d="M400.16 32.322a9.652 9.652 0 1 1 9.652-9.652 9.653 9.653 0 0 1-9.652 9.652zm0-14.479a4.826 4.826 0 1 0 4.826 4.826 4.825 4.825 0 0 0-4.826-4.826z" class="cls-1" data-name="Path 25" transform="translate(-303.637 -13.017)"/>
        <path id="Path_29" d="M278.669 153.813a9.652 9.652 0 1 1 9.652-9.652 9.653 9.653 0 0 1-9.652 9.652zm0-14.479a4.826 4.826 0 1 0 4.826 4.826 4.825 4.825 0 0 0-4.826-4.826z" class="cls-1" data-name="Path 29" transform="translate(-215.929 -100.725)"/>
    </g>
    <path id="Rectangle_37" d="M0 0h13.651v4.826H0z" class="cls-2" data-name="Rectangle 37" transform="rotate(135 43.468 37.386)"/>
    <path id="Path_27" d="M334.9 111.486l-5.507 5.507a47.959 47.959 0 0 1 1.448 5.364l6.737-6.737a48.445 48.445 0 0 0-2.678-4.134z" class="cls-4" data-name="Path 27" transform="translate(-237.796 -81.692)"/>
    <g id="Group_8" data-name="Group 8">
        <path id="Path_28" d="M57.914 4.339a57.914 57.914 0 1 0 57.914 57.914A57.914 57.914 0 0 0 57.914 4.339zm0 106.176a48.262 48.262 0 1 1 48.262-48.262 48.261 48.261 0 0 1-48.262 48.262z" class="cls-5" data-name="Path 28" transform="translate(0 -4.339)"/>
    </g>
</svg>
