<svg xmlns="http://www.w3.org/2000/svg" width="105.605" height="139.152" viewBox="0 0 105.605 139.152">
    <defs>
        <style>
            .cls-1{fill:#ffd4b0}.cls-2{fill:#ddd}.cls-3{fill:tomato}.cls-4{fill:#575a89}.cls-5{fill:#a4a4a4}.cls-6{fill:#163768}.cls-7{fill:#05492c}
        </style>
    </defs>
    <g id="icon" transform="translate(-61.716)">
        <path id="SVGCleanerId_0" d="M176.383 407.606h9.6a7.2 7.2 0 0 0 7.2-7.2 7.2 7.2 0 0 0-7.2-7.2h-12l-9.6 7.2h-14.4V417.2h56.416a14.393 14.393 0 0 0 10.177-4.215l13.1-13.1a6.572 6.572 0 0 0 1.919-4.532v-.132a6.7 6.7 0 0 0-6.59-6.811h-.205a6.838 6.838 0 0 0-4.88 2.02c-3.932 3.961-12.346 12.375-12.346 12.375h-16.796" class="cls-1" transform="translate(-64.284 -282.849)"/>
        <g id="Group_20" data-name="Group 20" transform="translate(85.708 105.563)">
            <path id="SVGCleanerId_0_1_" d="M176.383 407.606h9.6a7.2 7.2 0 0 0 7.2-7.2 7.2 7.2 0 0 0-7.2-7.2h-12l-9.6 7.2h-14.4V417.2h56.416a14.393 14.393 0 0 0 10.177-4.215l13.1-13.1a6.572 6.572 0 0 0 1.919-4.532v-.132a6.7 6.7 0 0 0-6.59-6.811h-.205a6.838 6.838 0 0 0-4.88 2.02c-3.932 3.961-12.346 12.375-12.346 12.375h-16.796" class="cls-2" transform="translate(-149.992 -388.412)"/>
        </g>
        <path id="Path_248" d="M222.524 9.815l-2.836 14.177H186.1l-2.836-14.177A8.2 8.2 0 0 1 191.31 0a10.587 10.587 0 0 1 7.49 3.1 5.791 5.791 0 0 0 4.1 1.7 5.791 5.791 0 0 0 4.1-1.7 10.59 10.59 0 0 1 7.477-3.1 8.2 8.2 0 0 1 8.205 8.205 7.9 7.9 0 0 1-.158 1.61z" class="cls-3" data-name="Path 248" transform="translate(-88.396)"/>
        <path id="Rectangle_169" d="M0 0h23.992v26.391H0z" class="cls-3" data-name="Rectangle 169" transform="translate(61.716 112.761)"/>
        <path id="Rectangle_170" d="M0 0h4.798v4.798H0z" class="cls-4" data-name="Rectangle 170" transform="translate(73.712 127.156)"/>
        <circle id="Ellipse_59" cx="35.988" cy="35.988" r="35.988" class="cls-3" data-name="Ellipse 59" transform="translate(78.51 28.79)"/>
        <g id="Group_21" data-name="Group 21" transform="translate(104.901 45.584)">
            <path id="Path_249" d="M232.609 214.168h-4.8a7.2 7.2 0 0 1-7.2-7.2h4.8a2.4 2.4 0 0 0 2.4 2.4h4.8a2.4 2.4 0 0 0 2.4-2.4v-2.4a2.4 2.4 0 0 0-2.4-2.4h-4.8a7.2 7.2 0 0 1-7.2-7.2v-2.4a7.2 7.2 0 0 1 7.2-7.2h4.8a7.2 7.2 0 0 1 7.2 7.2h-4.8a2.4 2.4 0 0 0-2.4-2.4h-4.8a2.4 2.4 0 0 0-2.4 2.4v2.4a2.4 2.4 0 0 0 2.4 2.4h4.8a7.2 7.2 0 0 1 7.2 7.2v2.4a7.2 7.2 0 0 1-7.2 7.2z" class="cls-4" data-name="Path 249" transform="translate(-220.613 -180.58)"/>
            <path id="Rectangle_171" d="M0 0h4.798v7.198H0z" class="cls-4" data-name="Rectangle 171" transform="translate(7.198)"/>
            <path id="Rectangle_172" d="M0 0h4.798v7.198H0z" class="cls-4" data-name="Rectangle 172" transform="translate(7.198 31.189)"/>
        </g>
        <path id="Path_251" d="M275.251 450.111a14.393 14.393 0 0 0 10.177-4.215l12.294-12.296a192.885 192.885 0 0 1-53.194 16.509z" class="cls-5" data-name="Path 251" transform="translate(-133.127 -315.757)"/>
        <path id="Path_253" d="M118.265 482.174v-1.247c-.633.444-1.293.849-1.958 1.247z" class="cls-6" data-name="Path 253" transform="translate(-39.754 -350.22)"/>
        <path id="Path_254" d="M163.618 88.276H206.8a4.8 4.8 0 0 1 4.8 4.8 4.8 4.8 0 0 1-4.8 4.8h-43.182a4.8 4.8 0 0 1-4.8-4.8 4.8 4.8 0 0 1 4.8-4.8z" class="cls-4" data-name="Path 254" transform="translate(-70.713 -64.284)"/>
        <path id="Path_255" d="M318.423 90.6a9.571 9.571 0 0 1-9.534 8.966h7.2a4.784 4.784 0 0 0 2.337-8.966z" class="cls-7" data-name="Path 255" transform="translate(-179.996 -65.975)"/>
        <path id="Path_256" d="M193.618 35.7l.139.7h33.588l2.836-14.177a8.112 8.112 0 0 0-.676-5.184A47.525 47.525 0 0 1 193.618 35.7z" class="cls-2" data-name="Path 256" transform="translate(-96.054 -12.407)"/>
        <path id="Path_257" d="M263.12 420.864a21.681 21.681 0 0 1-8.04 7.713 21.441 21.441 0 0 1-7.2 2.4l-.787.261h9.6a7.147 7.147 0 0 0 6.427-10.374z" class="cls-5" data-name="Path 257" transform="translate(-134.997 -306.481)"/>
        <path id="Path_258" d="M249.956 451.652a21.435 21.435 0 0 0 7.2-2.4z" class="cls-2" data-name="Path 258" transform="translate(-137.08 -327.155)"/>
    </g>
</svg>
